<?xml version="1.0" encoding="UTF-8"?>
<svg width="200px" height="200px" viewBox="0 0 200 200" version="1.1" xmlns="http://www.w3.org/2000/svg" xmlns:xlink="http://www.w3.org/1999/xlink">
    <title>Slice 1</title>
    <g id="Page-1" stroke="none" stroke-width="1" fill="none" fill-rule="evenodd">
        <g id="linkedin-icon" fill-rule="nonzero">
            <path d="M185.1875,0.00625 L14.7625,0.00625 C6.625,0.00625 0,6.4625 0,14.4125 L0,185.5625 C0,193.53125 6.625,200 14.7625,200 L185.2,200 C193.35625,200 200,193.53125 200,185.5625 L200,14.4125 C200,6.4625 193.35625,0.00625 185.1875,0.00625 Z" id="Path" fill="#0177B5"></path>
            <path d="M29.65625,74.98125 L59.375,74.98125 L59.375,170.41875 L29.65625,170.41875 L29.65625,74.98125 Z M44.49375,27.4812398 C53.975,27.4812398 61.68125,35.1875 61.68125,44.66875 C61.68125,54.15 53.975,61.875 44.5,61.875 C35.0047876,61.8543887 27.3115597,54.1639542 27.2875,44.66875 C27.2875,40.1070911 29.1008916,35.7325393 32.3282295,32.5087183 C35.5555674,29.2848972 39.9320938,27.4762736 44.49375,27.4812398 M77.93125,74.98125 L106.38125,74.98125 L106.38125,88.025 L106.775,88.025 C110.7375,80.525 120.4125,72.6125 134.9,72.6125 C164.9375,72.6125 170.48125,92.38125 170.48125,118.075 L170.48125,170.425 L140.8375,170.425 L140.8375,124 C140.8375,112.9375 140.6375,98.6875 125.425,98.6875 C109.9875,98.6875 107.6125,110.75 107.6125,123.1875 L107.6125,170.4 L77.975,170.4 L77.975,74.9625 L77.93125,74.98125 Z" id="Shape" fill="#FFFFFF"></path>
        </g>
    </g>
</svg>