<?xml version="1.0" encoding="UTF-8"?>
<svg width="200px" height="200px" viewBox="0 0 200 200" version="1.1" xmlns="http://www.w3.org/2000/svg" xmlns:xlink="http://www.w3.org/1999/xlink">
    <title>Slice 1</title>
    <g id="Page-1" stroke="none" stroke-width="1" fill="none" fill-rule="evenodd">
        <g id="twitter-tile" fill-rule="nonzero">
            <rect id="Rectangle" fill="#1DA1F2" x="0" y="0" width="200" height="200" rx="15"></rect>
            <path d="M170.703125,59.375 C166.015625,61.71875 160.546875,63.28125 155.078125,64.0625 C160.9375,60.546875 165.234375,55.078125 167.578125,48.4375 C162.109375,51.5625 156.25,53.90625 150,55.078125 C141.268317,46.1351158 127.682389,44.0274211 116.651545,49.9045101 C105.620701,55.7815992 99.7918048,68.2332578 102.34375,80.46875 C80.46875,79.296875 59.375,69.140625 45.703125,51.5625 C41.9456621,57.563924 40.7398282,64.817159 42.3533985,71.7115051 C43.9669689,78.6058513 48.2663793,84.5706248 54.296875,88.28125 C50,88.28125 45.703125,87.5 41.796875,85.546875 C42.1875,98.4375 51.171875,109.765625 63.671875,112.5 C59.765625,113.671875 55.46875,113.671875 51.171875,112.890625 C55.078125,124.21875 65.625,132.03125 77.34375,132.421875 C66.015625,141.796875 50.78125,146.09375 36.328125,143.75 C60.9672777,160.191374 92.8089941,161.200788 118.440043,146.353028 C144.071092,131.505268 159.036158,103.381246 157.03125,73.828125 C162.5,69.921875 167.1875,65.234375 170.703125,59.375" id="Path" fill="#FFFFFF"></path>
        </g>
    </g>
</svg>